PathFileType	4	(X/Y/Z)	output.trc
DataRate	CameraRate	NumFrames	NumMarkers	Units	OrigDataRate	OrigDataStartFrame	OrigNumFrames
100	100	10	23	m	100	607	4852
Frame#	Time	C7			T8			EL			EM			US			RS			AA			Fore_Clus_1			Fore_Clus_2			Fore_Clus_3			Fore_Clus_4			Hum_Clus_1			Hum_Clus_2			Hum_Clus_3			Hum_Clus_4			Thor_Clus_1			Thor_Clus_2			Thor_Clus_3			Thor_Clus_4			IJ			PX			GH			Thor_Clus_5		
		X1	Y1	Z1	X2	Y2	Z2	X3	Y3	Z3	X4	Y4	Z4	X5	Y5	Z5	X6	Y6	Z6	X7	Y7	Z7	X8	Y8	Z8	X9	Y9	Z9	X10	Y10	Z10	X11	Y11	Z11	X12	Y12	Z12	X13	Y13	Z13	X14	Y14	Z14	X15	Y15	Z15	X16	Y16	Z16	X17	Y17	Z17	X18	Y18	Z18	X19	Y19	Z19	X20	Y20	Z20	X21	Y21	Z21	X22	Y22	Z22	X23	Y23	Z23
606	6.060000	-0.080379	1.587680	-0.034250	-0.093021	1.326244	-0.110825	-0.275669	1.171324	0.084162	-0.214061	1.154640	0.042541	-0.310890	0.893622	0.113713	-0.266466	0.906489	0.157002	-0.223075	1.483632	0.080134	-0.331682	0.952518	0.134054	-0.336996	0.899354	0.145050	-0.318250	0.901779	0.165743	-0.302814	0.958072	0.168525	-0.266936	1.271328	0.141347	-0.296729	1.283416	0.090290	-0.300391	1.346877	0.094396	-0.264358	1.345592	0.141190	0.055614	1.466335	0.086814	0.018700	1.406818	0.134168	0.017967	1.458918	0.109255	0.073237	1.416903	0.100890	-0.009745	1.492480	0.048926	0.028764	1.305209	0.074855	-0.197786	1.465876	0.075910	0.010933	1.428816	0.127688
607	6.070000	-0.080286	1.587756	-0.034031	-0.093030	1.326370	-0.110757	-0.275649	1.171320	0.084205	-0.214039	1.154630	0.042589	-0.310925	0.893625	0.113651	-0.266494	0.906464	0.156941	-0.222991	1.483687	0.080324	-0.331698	0.952520	0.134037	-0.337020	0.899340	0.145010	-0.318280	0.901775	0.165701	-0.302821	0.958058	0.168499	-0.266878	1.271316	0.141419	-0.296698	1.283413	0.090350	-0.300329	1.346886	0.094480	-0.264293	1.345579	0.141283	0.055721	1.466283	0.086916	0.018661	1.406626	0.134166	0.018040	1.458888	0.109364	0.073315	1.416879	0.100978	-0.009665	1.492485	0.049073	0.028789	1.305186	0.074884	-0.197694	1.465856	0.076020	0.011011	1.428771	0.127797
608	6.080000	-0.080193	1.587828	-0.033813	-0.093027	1.326492	-0.110695	-0.275634	1.171320	0.084247	-0.214021	1.154620	0.042639	-0.310969	0.893630	0.113584	-0.266531	0.906441	0.156875	-0.222906	1.483731	0.080505	-0.331728	0.952504	0.134021	-0.337057	0.899330	0.144987	-0.318290	0.901744	0.165657	-0.302843	0.958034	0.168482	-0.266843	1.271283	0.141481	-0.296657	1.283411	0.090416	-0.300275	1.346883	0.094578	-0.264236	1.345547	0.141371	0.055789	1.466247	0.087029	0.018751	1.406591	0.134272	0.018120	1.458843	0.109482	0.073370	1.416740	0.101021	-0.009584	1.492486	0.049220	0.028821	1.305161	0.074910	-0.197596	1.465835	0.076126	0.011101	1.428701	0.127898
609	6.090000	-0.080099	1.587894	-0.033601	-0.093008	1.326607	-0.110639	-0.275623	1.171324	0.084285	-0.214006	1.154612	0.042689	-0.311021	0.893637	0.113512	-0.266574	0.906419	0.156802	-0.222822	1.483762	0.080675	-0.331762	0.952500	0.134002	-0.337092	0.899332	0.144926	-0.318317	0.901720	0.165604	-0.302861	0.958018	0.168451	-0.266800	1.271272	0.141539	-0.296613	1.283413	0.090473	-0.300219	1.346892	0.094657	-0.264179	1.345535	0.141444	0.055848	1.466215	0.087154	0.018826	1.406540	0.134352	0.018197	1.458807	0.109599	0.073439	1.416637	0.101070	-0.009501	1.492484	0.049364	0.028861	1.305133	0.074935	-0.197493	1.465817	0.076231	0.011168	1.428689	0.128023
610	6.100000	-0.080006	1.587949	-0.033395	-0.092975	1.326710	-0.110586	-0.275612	1.171334	0.084318	-0.213990	1.154609	0.042734	-0.311077	0.893650	0.113432	-0.266619	0.906400	0.156721	-0.222736	1.483778	0.080835	-0.331792	0.952497	0.133961	-0.337152	0.899331	0.144880	-0.318339	0.901705	0.165552	-0.302900	0.957995	0.168436	-0.266755	1.271253	0.141590	-0.296573	1.283414	0.090527	-0.300146	1.346894	0.094736	-0.264117	1.345509	0.141517	0.056147	1.465993	0.087134	0.018908	1.406477	0.134453	0.018270	1.458755	0.109724	0.073506	1.416594	0.101161	-0.009418	1.492476	0.049506	0.028911	1.305103	0.074962	-0.197387	1.465803	0.076336	0.011380	1.428353	0.127909
611	6.110000	-0.079907	1.587994	-0.033201	-0.092912	1.326803	-0.110547	-0.275604	1.171347	0.084351	-0.213976	1.154607	0.042781	-0.311138	0.893663	0.113353	-0.266671	0.906382	0.156641	-0.222649	1.483774	0.080970	-0.331817	0.952511	0.133921	-0.337208	0.899352	0.144823	-0.318385	0.901706	0.165480	-0.302935	0.957990	0.168368	-0.266710	1.271231	0.141630	-0.296512	1.283422	0.090559	-0.300081	1.346908	0.094787	-0.264067	1.345502	0.141580	0.056213	1.465929	0.087243	0.019010	1.406420	0.134539	0.018353	1.458693	0.109860	0.073585	1.416538	0.101247	-0.009330	1.492463	0.049642	0.028975	1.305070	0.074987	-0.197276	1.465790	0.076438	0.011406	1.428252	0.128016
612	6.120000	-0.079806	1.588026	-0.033020	-0.092828	1.326879	-0.110510	-0.275595	1.171365	0.084376	-0.213960	1.154612	0.042822	-0.311200	0.893681	0.113269	-0.266722	0.906368	0.156555	-0.222560	1.483754	0.081089	-0.331866	0.952519	0.133866	-0.337388	0.899354	0.144733	-0.318428	0.901693	0.165399	-0.302999	0.957974	0.168306	-0.266744	1.271315	0.141645	-0.296456	1.283425	0.090595	-0.300005	1.346922	0.094841	-0.264014	1.345496	0.141638	0.056315	1.465884	0.087363	0.019108	1.406350	0.134642	0.018454	1.458636	0.109965	0.073652	1.416462	0.101354	-0.009239	1.492444	0.049773	0.029051	1.305034	0.075015	-0.197163	1.465783	0.076542	0.011451	1.428451	0.128293
613	6.130000	-0.079699	1.588045	-0.032855	-0.092715	1.326939	-0.110483	-0.275585	1.171386	0.084399	-0.213943	1.154620	0.042860	-0.311264	0.893699	0.113185	-0.266777	0.906354	0.156471	-0.222468	1.483715	0.081182	-0.331904	0.952534	0.133790	-0.337436	0.899379	0.144634	-0.318496	0.901703	0.165309	-0.303054	0.957975	0.168236	-0.266869	1.271521	0.141635	-0.296399	1.283447	0.090626	-0.299933	1.346936	0.094894	-0.263970	1.345496	0.141687	0.056408	1.465827	0.087455	0.019222	1.406282	0.134762	0.018566	1.458599	0.110078	0.073757	1.416465	0.101522	-0.009143	1.492419	0.049896	0.029141	1.304995	0.075045	-0.197048	1.465778	0.076643	0.011573	1.428294	0.128302
614	6.140000	-0.079585	1.588052	-0.032707	-0.092574	1.326983	-0.110465	-0.275573	1.171411	0.084418	-0.213925	1.154631	0.042895	-0.311326	0.893718	0.113102	-0.266832	0.906343	0.156390	-0.222372	1.483660	0.081250	-0.331952	0.952551	0.133699	-0.337499	0.899400	0.144543	-0.318540	0.901709	0.165221	-0.303122	0.957972	0.168152	-0.266801	1.271498	0.141678	-0.296346	1.283466	0.090678	-0.299849	1.346948	0.094949	-0.263912	1.345495	0.141747	0.056486	1.465783	0.087558	0.019309	1.406231	0.134845	0.018681	1.458529	0.110160	0.073865	1.416462	0.101674	-0.009042	1.492388	0.050012	0.029245	1.304954	0.075077	-0.196930	1.465777	0.076743	0.011653	1.428218	0.128386
615	6.150000	-0.079466	1.588045	-0.032575	-0.092412	1.327008	-0.110450	-0.275557	1.171438	0.084431	-0.213902	1.154647	0.042921	-0.311385	0.893741	0.113017	-0.266884	0.906335	0.156307	-0.222274	1.483591	0.081300	-0.331983	0.952571	0.133606	-0.337551	0.899431	0.144400	-0.318623	0.901694	0.165083	-0.303184	0.957998	0.168075	-0.266757	1.271520	0.141719	-0.296284	1.283501	0.090704	-0.299769	1.346978	0.094999	-0.263844	1.345517	0.141809	0.056659	1.465746	0.087679	0.019392	1.406177	0.134932	0.018680	1.458595	0.110459	0.073958	1.416412	0.101786	-0.008936	1.492351	0.050121	0.029361	1.304909	0.075115	-0.196814	1.465780	0.076844	0.011775	1.427977	0.128311
